<svg width="90" height="90" viewBox="0 0 90 90" fill="none" xmlns="http://www.w3.org/2000/svg">
<path d="M80.85 40.275L75.75 34.35C74.775 33.225 73.9875 31.125 73.9875 29.625V23.25C73.9875 19.275 70.725 16.0125 66.75 16.0125H60.375C58.9125 16.0125 56.775 15.225 55.65 14.25L49.725 9.14998C47.1375 6.93748 42.9 6.93748 40.275 9.14998L34.3875 14.2875C33.2625 15.225 31.125 16.0125 29.6625 16.0125H23.175C19.2 16.0125 15.9375 19.275 15.9375 23.25V29.6625C15.9375 31.125 15.15 33.225 14.2125 34.35L9.14999 40.3125C6.97499 42.9 6.97499 47.1 9.14999 49.6875L14.2125 55.65C15.15 56.775 15.9375 58.875 15.9375 60.3375V66.75C15.9375 70.725 19.2 73.9875 23.175 73.9875H29.6625C31.125 73.9875 33.2625 74.775 34.3875 75.75L40.3125 80.85C42.9 83.0625 47.1375 83.0625 49.7625 80.85L55.6875 75.75C56.8125 74.775 58.9125 73.9875 60.4125 73.9875H66.7875C70.7625 73.9875 74.025 70.725 74.025 66.75V60.375C74.025 58.9125 74.8125 56.775 75.7875 55.65L80.8875 49.725C83.0625 47.1375 83.0625 42.8625 80.85 40.275ZM60.6 37.9125L42.4875 56.025C41.9625 56.55 41.25 56.85 40.5 56.85C39.75 56.85 39.0375 56.55 38.5125 56.025L29.4375 46.95C28.35 45.8625 28.35 44.0625 29.4375 42.975C30.525 41.8875 32.325 41.8875 33.4125 42.975L40.5 50.0625L56.625 33.9375C57.7125 32.85 59.5125 32.85 60.6 33.9375C61.6875 35.025 61.6875 36.825 60.6 37.9125Z" fill="#32A693"/>
</svg>
